<?xml version="1.0" encoding="UTF-8" standalone="no"?>
<!-- Created with Inkscape (http://www.inkscape.org/) -->

<svg
   xmlns:dc="http://purl.org/dc/elements/1.1/"
   xmlns:cc="http://creativecommons.org/ns#"
   xmlns:rdf="http://www.w3.org/1999/02/22-rdf-syntax-ns#"
   xmlns:svg="http://www.w3.org/2000/svg"
   xmlns="http://www.w3.org/2000/svg"
   xmlns:sodipodi="http://sodipodi.sourceforge.net/DTD/sodipodi-0.dtd"
   xmlns:inkscape="http://www.inkscape.org/namespaces/inkscape"
   width="131.57423mm"
   height="118.88419mm"
   viewBox="0 0 131.57423 118.88419"
   version="1.1"
   id="svg8"
   inkscape:version="0.92.2 5c3e80d, 2017-08-06"
   sodipodi:docname="laura-jael-b.svg">
  <defs
     id="defs2">
    <filter
       style="color-interpolation-filters:sRGB;"
       inkscape:label="Greyscale"
       id="filter101">
      <feColorMatrix
         values="0.21 0.72 0.072 10 0 0.21 0.72 0.072 10 0 0.21 0.72 0.072 10 0 0 0 0 1 0 "
         id="feColorMatrix99" />
    </filter>
  </defs>
  <sodipodi:namedview
     id="base"
     pagecolor="#ffffff"
     bordercolor="#666666"
     borderopacity="1.0"
     inkscape:pageopacity="0.0"
     inkscape:pageshadow="2"
     inkscape:zoom="1.32"
     inkscape:cx="222.11481"
     inkscape:cy="223.29224"
     inkscape:document-units="mm"
     inkscape:current-layer="layer1"
     showgrid="false"
     inkscape:window-width="1440"
     inkscape:window-height="855"
     inkscape:window-x="6"
     inkscape:window-y="1"
     inkscape:window-maximized="0"
     fit-margin-top="0"
     fit-margin-left="0"
     fit-margin-right="0"
     fit-margin-bottom="0" />
  <metadata
     id="metadata5">
    <rdf:RDF>
      <cc:Work
         rdf:about="">
        <dc:format>image/svg+xml</dc:format>
        <dc:type
           rdf:resource="http://purl.org/dc/dcmitype/StillImage" />
        <dc:title />
      </cc:Work>
    </rdf:RDF>
  </metadata>
  <g
     inkscape:label="Layer 1"
     inkscape:groupmode="layer"
     id="layer1"
     transform="translate(-22.400483,-16.291304)">
    <g
       id="g3765"
       style="filter:url(#filter101)">
      <g
         aria-label="aura"
         transform="rotate(-4)"
         style="font-style:normal;font-variant:normal;font-weight:normal;font-stretch:normal;font-size:41.03565979px;line-height:1.25;font-family:'Vegan Style Personal Use';-inkscape-font-specification:'Vegan Style Personal Use';letter-spacing:0px;word-spacing:0px;fill:#000000;fill-opacity:1;stroke:none;stroke-width:1.02589142"
         id="text12">
        <path
           d="m 79.740892,57.072622 q -0.04104,0.246214 -0.328286,0.410357 -0.246214,0.123107 -0.615534,0.205178 -0.369321,0.04104 -0.779678,0.04104 -0.369321,0 -0.656571,-0.123107 0.5745,0.369321 1.066928,0.861749 0.492427,0.492427 0.820713,1.107962 0.328285,0.5745 0.410356,1.190034 0.123107,0.615535 -0.123107,1.190035 -0.164142,0.287249 -0.369321,0.65657 -0.205178,0.328285 -0.410356,0.697606 -0.451392,0.779678 -0.94382,1.682462 -0.451393,0.902785 -0.861749,1.764534 -0.410357,0.861749 -0.738642,1.641426 -0.28725,0.738642 -0.369321,1.272106 0,0.08207 -0.08207,0.123107 -0.04104,0.04103 -0.08207,0.08207 h 0.28725 q 1.23107,-0.410357 2.380068,-1.354177 1.148999,-0.94382 2.215926,-2.133854 1.107963,-1.23107 2.092819,-2.585247 1.025891,-1.395212 1.928676,-2.667318 0.328285,-0.328285 0.492427,-0.574499 0.164143,-0.246214 0.328286,-0.533463 0.164142,-0.205179 0.615535,-0.08207 0.451392,0.08207 0.861748,0.369321 0.410357,0.28725 0.656571,0.697606 0.246214,0.369321 0,0.656571 l -1.190034,1.641426 v 0.04104 q -1.764533,2.421104 -3.693209,4.801172 -1.887641,2.339033 -4.226673,4.226673 -0.369321,0.328285 -0.943821,0.738642 -0.533463,0.369321 -1.231069,0.697606 -0.656571,0.369321 -1.436248,0.5745 -0.779678,0.246213 -1.600391,0.205178 -1.969712,-0.164143 -2.790425,-1.395213 -0.779678,-1.231069 -0.574499,-3.077674 -1.846605,1.723498 -3.734245,2.995603 -1.887641,1.23107 -3.611138,1.272106 -1.559356,-0.164143 -2.503176,-0.861749 -0.902784,-0.738642 -1.354176,-1.723498 -0.451393,-0.984856 -0.533464,-2.092819 -0.04104,-1.148998 0.08207,-2.133854 0.164143,-0.902785 0.369321,-1.477284 0.410357,-1.518319 1.354177,-3.323888 0.94382,-1.805569 2.256961,-3.611138 1.313141,-1.805569 2.872496,-3.488031 1.600391,-1.682462 3.364925,-2.995604 1.764533,-1.313141 3.570102,-2.092818 1.846605,-0.779678 3.652174,-0.779678 0.533463,0 1.025891,0.08207 0.492428,0.08207 1.066927,0.246214 0.984856,0.328285 1.477284,1.066927 0.533464,0.697606 0.697606,1.682462 0.205179,0.94382 0.123107,2.051783 -0.04104,1.066927 -0.287249,2.133854 z m -4.801173,0 q 0.410357,-0.205178 0.943821,-0.08207 0.574499,0.123107 1.148998,0.451392 -0.205178,-0.205178 -0.123107,-0.451392 0.04104,-0.123107 0,-0.28725 0,-0.164142 0.04104,-0.328285 0.04103,-0.410357 0.04103,-0.861749 0,-0.451392 -0.123107,-0.820713 -0.123106,-0.410357 -0.410356,-0.656571 -0.28725,-0.246214 -0.779678,-0.287249 -1.518319,-0.04104 -3.11871,1.107962 -1.600391,1.107963 -3.077674,2.831461 -1.477284,1.723498 -2.708354,3.693209 -1.190034,1.969712 -1.88764,3.570103 -0.205178,0.451392 -0.410357,1.148998 -0.205178,0.656571 -0.287249,1.313141 -0.08207,0.451393 -0.08207,0.861749 0,0.410357 0.164143,0.697606 0.205178,0.28725 0.574499,0.369321 0.369321,0.08207 1.025892,-0.08207 0.615535,-0.164143 1.559355,-0.94382 0.94382,-0.779678 1.969711,-1.805569 1.066928,-1.066927 2.051783,-2.256961 1.025892,-1.190035 1.723498,-2.133855 0.615535,-1.23107 1.107963,-2.380068 0.533464,-1.190034 0.738642,-2.010747 z"
           style="stroke-width:1.02589142"
           id="path16" />
        <path
           d="m 101.21152,50.137596 q 0.61553,-0.28725 1.43625,0.08207 0.86175,0.369321 1.51832,1.148998 0.6976,0.779678 0.98485,1.764534 0.32829,0.984856 -0.0821,1.928676 -0.16414,0.328285 -0.5745,1.025891 -0.41035,0.697606 -0.90278,1.559355 l 0.041,-0.08207 q -0.77967,1.354177 -1.76453,3.077674 -0.98486,1.723498 -1.887641,3.40596 -0.902784,1.682462 -1.559355,3.159746 -0.65657,1.436248 -0.820713,2.339033 -0.164143,0.328285 -0.164143,0.328285 h 0.410357 q 1.190034,-0.410357 2.339035,-1.354177 1.19003,-0.94382 2.25696,-2.17489 1.10796,-1.23107 2.13385,-2.585246 1.02589,-1.395213 1.92868,-2.667318 l 0.82071,-1.190034 q 0.41036,-0.533464 0.94382,-0.5745 0.53347,-0.04104 0.90279,0.28725 0.41035,0.28725 0.49242,0.861749 0.12311,0.574499 -0.36932,1.313141 l -1.14899,1.559355 q -1.7235,2.339033 -3.65218,4.760137 -1.92867,2.421103 -4.18564,4.267708 -0.369316,0.328285 -0.943816,0.738642 -0.574499,0.369321 -1.272105,0.697606 -0.697606,0.328286 -1.477284,0.533464 -0.779677,0.246214 -1.559355,0.246214 -1.805569,-0.08207 -2.421104,-1.51832 -0.615535,-1.436248 -0.287249,-3.529066 v -0.04104 q -0.738642,0.820713 -1.477284,1.559355 -0.738642,0.697606 -1.51832,1.313141 -0.369321,0.328285 -0.94382,0.738642 -0.574499,0.369321 -1.272105,0.697606 -0.697606,0.328286 -1.477284,0.533464 -0.779678,0.246214 -1.559355,0.246214 -1.764533,-0.08207 -2.380068,-1.51832 -0.5745,-1.436248 -0.246214,-3.488031 0.08207,-0.451392 0.164142,-0.984856 0.123107,-0.533463 0.28725,-0.984855 0.328285,-0.902785 0.820713,-2.051783 0.492428,-1.190034 1.107963,-2.421104 0.615535,-1.272106 1.272105,-2.585247 0.656571,-1.354177 1.272106,-2.667318 1.025891,-2.092818 1.928676,-3.980459 0.902784,-1.928676 1.436248,-3.200781 l 0.492428,-0.574499 q 0.615535,-0.28725 1.436248,0.08207 0.861749,0.369321 1.518319,1.148998 0.697607,0.779678 0.984856,1.764534 0.328286,0.984856 -0.08207,1.928676 -0.205178,0.369321 -0.615535,1.107963 -0.410357,0.738641 -0.984856,1.682462 l 0.04104,-0.04104 q -0.820713,1.354177 -1.805569,3.036639 -0.94382,1.641426 -1.805569,3.282853 -0.861749,1.641426 -1.51832,3.11871 -0.615535,1.436248 -0.738641,2.297997 -0.164143,0.328285 -0.164143,0.328285 h 0.369321 q 1.190034,-0.410357 2.339032,-1.313141 1.148999,-0.94382 2.215926,-2.092819 1.066927,-1.190034 2.051783,-2.503175 0.984856,-1.354177 1.88764,-2.626282 h -0.04104 q 0.123107,-0.205179 0.287249,-0.410357 0.164143,-0.205178 0.328286,-0.410356 l 1.190034,-2.380069 q 1.107963,-2.17489 2.051783,-4.144601 0.984858,-1.969712 1.477288,-3.282853 z"
           style="stroke-width:1.02589142"
           id="path18" />
        <path
           d="m 121.90183,66.428753 q -1.149,1.395212 -2.54422,2.872496 -1.39521,1.436248 -2.95456,2.626282 -1.55936,1.190034 -3.24182,1.928676 -1.68246,0.738642 -3.32389,0.65657 -0.94382,-0.04103 -1.60039,-0.451392 -0.65657,-0.410356 -1.02589,-1.066927 -0.32829,-0.697606 -0.41036,-1.559355 -0.0821,-0.861749 0.0821,-1.805569 0.28725,-1.354177 0.82072,-2.544211 0.53346,-1.190034 1.23107,-2.256961 0.73864,-1.066927 1.55935,-2.092819 0.82072,-1.025891 1.7235,-2.092819 l 0.98486,-1.148998 v 0.04104 l 1.19003,-1.395213 q 0.32829,-0.451392 0.86175,-0.820713 0.5745,-0.369321 1.76453,-0.697606 -0.5745,0.123107 -0.94382,0.205178 -0.36932,0.04104 -0.65657,0.123107 -0.53346,0.123107 -1.06693,0.246214 -0.53346,0.123107 -1.23107,0.08207 h -0.41035 q -1.10797,1.395213 -2.09282,2.74939 -0.98486,1.313141 -1.84661,2.503175 v -0.04104 q -0.16414,0.246214 -0.57449,0.123107 -0.41036,-0.123107 -0.77968,-0.410356 -0.36932,-0.328286 -0.61554,-0.697607 -0.20518,-0.410356 0.041,-0.697606 v 0.04104 q 1.19003,-1.559355 2.01075,-2.708354 0.82071,-1.190034 1.47728,-2.092818 -0.32829,-0.697607 -0.12311,-1.641427 0.20518,-1.272105 0.90279,-2.256961 0.6976,-0.984856 1.64142,-2.297997 0.36932,-0.533464 0.77968,-1.190034 0.45139,-0.656571 0.90279,-1.600391 0.57449,0.328285 1.14899,0.697606 0.5745,0.328286 0.98486,0.820714 0.45139,0.451392 0.65657,1.066927 0.20518,0.615535 0.0821,1.395212 -0.0821,0.369321 -0.20518,0.820713 -0.1231,0.410357 -0.45139,0.984856 l -1.7235,1.846605 q -0.20517,0.246214 0.20518,0.08207 0.41036,-0.205178 1.19004,-0.65657 0.77967,-0.451393 1.76453,-1.066928 0.98485,-0.615534 1.92868,-1.231069 0.94382,-0.615535 1.64142,-1.148999 0.73864,-0.533463 1.02589,-0.820713 0.24622,0 0.61554,0.246214 0.36932,0.246214 0.6976,0.574499 0.36933,0.28725 0.61554,0.574499 0.28725,0.246214 0.32828,0.328286 0.32829,0.697606 0,1.682462 -0.32828,0.94382 -1.10796,2.092818 -0.73864,1.148999 -1.8466,2.46214 -1.06693,1.272105 -2.25696,2.626282 -0.69761,0.738642 -1.35418,1.477284 -0.65657,0.738642 -1.31314,1.518319 -0.49243,0.5745 -1.10797,1.313141 -0.61553,0.738642 -1.19003,1.51832 -0.5745,0.738642 -0.98486,1.477284 -0.41035,0.738642 -0.49242,1.231069 -0.0821,0.246214 0.41035,0.246214 0.4514,0.04104 1.19004,-0.287249 0.73864,-0.369321 1.60039,-0.984856 0.86175,-0.656571 1.76453,-1.518319 0.90279,-0.861749 1.68246,-1.887641 h -0.041 q 1.06693,-1.313141 2.01075,-2.585246 0.94382,-1.272106 1.51831,-2.17489 0.20518,-0.205179 0.61554,-0.04104 0.41036,0.123107 0.77968,0.451392 0.36932,0.328286 0.5745,0.779678 0.20517,0.410356 -0.041,0.697606 l 0.041,-0.08207 -1.47729,2.051783 -1.92867,2.749389 z"
           style="stroke-width:1.02589142"
           id="path20" />
        <path
           d="m 141.21423,57.072622 q -0.041,0.246214 -0.32828,0.410357 -0.24621,0.123107 -0.61554,0.205178 -0.36932,0.04104 -0.77967,0.04104 -0.36932,0 -0.65657,-0.123107 0.5745,0.369321 1.06692,0.861749 0.49243,0.492427 0.82072,1.107962 0.32828,0.5745 0.41035,1.190034 0.12311,0.615535 -0.1231,1.190035 -0.16415,0.287249 -0.36932,0.65657 -0.20518,0.328285 -0.41036,0.697606 -0.45139,0.779678 -0.94382,1.682462 -0.45139,0.902785 -0.86175,1.764534 -0.41036,0.861749 -0.73864,1.641426 -0.28725,0.738642 -0.36932,1.272106 0,0.08207 -0.0821,0.123107 -0.041,0.04103 -0.0821,0.08207 h 0.28725 q 1.23107,-0.410357 2.38007,-1.354177 1.149,-0.94382 2.21593,-2.133854 1.10796,-1.23107 2.09282,-2.585247 1.02589,-1.395212 1.92867,-2.667318 0.32829,-0.328285 0.49243,-0.574499 0.16414,-0.246214 0.32829,-0.533463 0.16414,-0.205179 0.61553,-0.08207 0.45139,0.08207 0.86175,0.369321 0.41036,0.28725 0.65657,0.697606 0.24621,0.369321 0,0.656571 l -1.19003,1.641426 v 0.04104 q -1.76454,2.421104 -3.69321,4.801172 -1.88764,2.339033 -4.22668,4.226673 -0.36932,0.328285 -0.94382,0.738642 -0.53346,0.369321 -1.23107,0.697606 -0.65657,0.369321 -1.43624,0.5745 -0.77968,0.246213 -1.6004,0.205178 -1.96971,-0.164143 -2.79042,-1.395213 -0.77968,-1.231069 -0.5745,-3.077674 -1.8466,1.723498 -3.73424,2.995603 -1.88764,1.23107 -3.61114,1.272106 -1.55936,-0.164143 -2.50318,-0.861749 -0.90278,-0.738642 -1.35417,-1.723498 -0.4514,-0.984856 -0.53347,-2.092819 -0.041,-1.148998 0.0821,-2.133854 0.16415,-0.902785 0.36932,-1.477284 0.41036,-1.518319 1.35418,-3.323888 0.94382,-1.805569 2.25696,-3.611138 1.31314,-1.805569 2.8725,-3.488031 1.60039,-1.682462 3.36492,-2.995604 1.76454,-1.313141 3.5701,-2.092818 1.84661,-0.779678 3.65218,-0.779678 0.53346,0 1.02589,0.08207 0.49243,0.08207 1.06693,0.246214 0.98485,0.328285 1.47728,1.066927 0.53346,0.697606 0.69761,1.682462 0.20518,0.94382 0.1231,2.051783 -0.041,1.066927 -0.28725,2.133854 z m -4.80117,0 q 0.41036,-0.205178 0.94382,-0.08207 0.5745,0.123107 1.149,0.451392 -0.20518,-0.205178 -0.12311,-0.451392 0.041,-0.123107 0,-0.28725 0,-0.164142 0.041,-0.328285 0.041,-0.410357 0.041,-0.861749 0,-0.451392 -0.12311,-0.820713 -0.12311,-0.410357 -0.41036,-0.656571 -0.28725,-0.246214 -0.77968,-0.287249 -1.51832,-0.04104 -3.11871,1.107962 -1.60039,1.107963 -3.07767,2.831461 -1.47728,1.723498 -2.70835,3.693209 -1.19004,1.969712 -1.88764,3.570103 -0.20518,0.451392 -0.41036,1.148998 -0.20518,0.656571 -0.28725,1.313141 -0.0821,0.451393 -0.0821,0.861749 0,0.410357 0.16414,0.697606 0.20518,0.28725 0.5745,0.369321 0.36932,0.08207 1.02589,-0.08207 0.61554,-0.164143 1.55936,-0.94382 0.94382,-0.779678 1.96971,-1.805569 1.06693,-1.066927 2.05178,-2.256961 1.02589,-1.190035 1.7235,-2.133855 0.61553,-1.23107 1.10796,-2.380068 0.53347,-1.190034 0.73864,-2.010747 z"
           style="stroke-width:1.02589142"
           id="path22" />
      </g>
      <g
         aria-label="Jael"
         transform="rotate(-7)"
         style="font-style:normal;font-variant:normal;font-weight:normal;font-stretch:normal;font-size:36.90725708px;line-height:1.25;font-family:'Vegan Style Personal Use';-inkscape-font-specification:'Vegan Style Personal Use';letter-spacing:0px;word-spacing:0px;fill:#000000;fill-opacity:1;stroke:none;stroke-width:0.92268139"
         id="text20">
        <path
           d="m 50.829742,107.21479 q -0.738145,0.92268 -1.439383,1.07031 -0.66433,0.14763 -1.254846,-0.18454 -0.553609,-0.36907 -0.959589,-1.10721 -0.369073,-0.73815 -0.553609,-1.58702 -0.147629,-0.84886 -0.03691,-1.66082 0.110722,-0.84887 0.590516,-1.43938 1.439383,-2.62042 3.469282,-5.019392 2.029899,-2.435879 4.391964,-4.5765 2.362064,-2.14062 4.908665,-3.985983 2.546601,-1.845363 5.019387,-3.284746 2.472786,-1.439383 4.687221,-2.435879 2.251343,-1.033403 3.985984,-1.550105 0.775053,-0.258351 1.47629,-0.258351 1.107218,0 1.808456,0.516702 0.738145,0.479794 1.070311,1.291754 0.332165,0.81196 0.295258,1.845363 -0.03691,0.996496 -0.369073,2.029899 l 0.03691,-0.03691 q -0.922681,2.915673 -2.435879,6.45877 -1.47629,3.506189 -3.432375,7.344545 -1.919177,3.83835 -4.281241,7.86124 -2.325158,3.98599 -4.945573,7.86125 -2.583508,3.83836 -5.425367,7.38145 -2.804951,3.5431 -5.720625,6.49568 -2.878766,2.95258 -5.794439,5.13011 -2.915673,2.17753 -5.720625,3.28474 -0.811959,0.29526 -2.029899,0.4798 -1.181032,0.22144 -2.251343,0.29526 -2.915673,0.18453 -4.83485,-0.77506 -1.919178,-0.95959 -2.952581,-2.62041 -1.07031,-1.62392 -1.328661,-3.76454 -0.295258,-2.10372 0.03691,-4.28124 0.553609,-3.24784 2.140621,-6.45877 1.587012,-3.21094 3.949077,-5.75754 2.398971,-2.5835 5.462274,-4.17052 3.063302,-1.58701 6.606399,-1.58701 1.144125,0 2.251342,0.29526 1.107218,0.29526 1.919178,0.92268 0.811959,0.62742 1.217939,1.58701 0.442887,0.95959 0.295258,2.25135 -0.110721,0.40598 -0.590516,1.18103 -0.479794,0.77505 -1.033403,1.43938 -0.553609,0.62742 -1.07031,0.92268 -0.479795,0.29526 -0.627424,-0.29526 0.07381,-0.84886 -0.184536,-1.47629 -0.221444,-0.66433 -0.701238,-1.07031 -0.442887,-0.44288 -1.107218,-0.66433 -0.627423,-0.22144 -1.328661,-0.22144 -1.697734,0 -3.35856,0.5167 -1.660827,0.5167 -3.174024,1.43938 -1.513198,0.92269 -2.841859,2.17753 -1.291754,1.25485 -2.325157,2.69423 -1.033404,1.47629 -1.771549,3.0264 -0.701238,1.58701 -0.959588,3.13711 -0.221444,1.43939 0.03691,2.87877 0.258351,1.43938 1.07031,2.58351 0.848867,1.18103 2.251343,1.88227 1.439383,0.73814 3.506189,0.73814 2.325158,-0.29525 4.871758,-1.95608 2.583508,-1.66083 5.203924,-4.31815 2.620415,-2.62042 5.24083,-6.0897 2.657323,-3.43237 5.167016,-7.27073 2.509693,-3.87526 4.834851,-7.93506 2.362064,-4.0967 4.355056,-8.00887 2.029899,-3.912171 3.653818,-7.455268 1.62392,-3.580004 2.731137,-6.384955 0.03691,-0.07382 0.07381,-0.147629 0.03691,-0.110722 0.07381,-0.184537 0.03691,-0.110722 0.07381,-0.184536 -1.439383,0.664331 -3.543097,2.029899 -2.066806,1.365569 -4.391963,3.174024 -2.325157,1.808456 -4.687222,3.949077 -2.362064,2.103713 -4.318149,4.244334 -1.956085,2.140621 -3.321653,4.170521 -1.328661,2.0299 -1.660827,3.65382 z"
           style="stroke-width:0.92268139"
           id="path25" />
        <path
           d="m 85.70018,106.07067 q -0.03691,0.22144 -0.295258,0.36907 -0.221444,0.11072 -0.553609,0.18453 -0.332165,0.0369 -0.701238,0.0369 -0.332165,0 -0.590516,-0.11072 0.516702,0.33217 0.959589,0.77505 0.442887,0.44289 0.738145,0.9965 0.295258,0.5167 0.369072,1.07031 0.110722,0.55361 -0.110721,1.07031 -0.147629,0.25835 -0.332166,0.59052 -0.184536,0.29525 -0.369072,0.62742 -0.40598,0.70124 -0.848867,1.5132 -0.40598,0.81196 -0.775053,1.58701 -0.369072,0.77505 -0.66433,1.47629 -0.258351,0.66433 -0.332166,1.14412 0,0.0738 -0.07381,0.11073 -0.03691,0.0369 -0.07381,0.0738 h 0.258351 q 1.107218,-0.36907 2.140621,-1.21794 1.033403,-0.84887 1.992992,-1.91918 0.996496,-1.10721 1.88227,-2.32515 0.922682,-1.25485 1.734641,-2.39898 0.295258,-0.29525 0.442887,-0.5167 0.147629,-0.22144 0.295258,-0.47979 0.147629,-0.18454 0.553609,-0.0738 0.40598,0.0738 0.775053,0.33217 0.369072,0.25835 0.590516,0.62742 0.221443,0.33217 0,0.59052 l -1.070311,1.47629 v 0.0369 q -1.587012,2.17752 -3.321653,4.31814 -1.697734,2.10372 -3.801447,3.80145 -0.332166,0.29526 -0.848867,0.66433 -0.479795,0.33217 -1.107218,0.62743 -0.590516,0.33216 -1.291754,0.5167 -0.701238,0.22144 -1.439383,0.18453 -1.771548,-0.14762 -2.509693,-1.25484 -0.701238,-1.10722 -0.516702,-2.76805 -1.660827,1.55011 -3.35856,2.69423 -1.697734,1.10722 -3.247839,1.14413 -1.402476,-0.14763 -2.251343,-0.77505 -0.811959,-0.66433 -1.217939,-1.55011 -0.40598,-0.88577 -0.479795,-1.88227 -0.03691,-1.0334 0.07381,-1.91918 0.147629,-0.81196 0.332165,-1.32866 0.369073,-1.36557 1.21794,-2.98949 0.848867,-1.62392 2.029899,-3.24783 1.181032,-1.62392 2.583508,-3.13712 1.439383,-1.5132 3.026395,-2.69423 1.587012,-1.18103 3.210931,-1.88227 1.660827,-0.701239 3.284746,-0.701239 0.479795,0 0.922682,0.07381 0.442887,0.07381 0.959588,0.221443 0.885774,0.295261 1.328662,0.959591 0.479794,0.62742 0.627423,1.5132 0.184536,0.84886 0.110722,1.84536 -0.03691,0.95959 -0.258351,1.91918 z m -4.318149,0 q 0.369072,-0.18454 0.848867,-0.0738 0.516701,0.11072 1.033403,0.40598 -0.184536,-0.18454 -0.110722,-0.40598 0.03691,-0.11072 0,-0.25835 0,-0.14763 0.03691,-0.29526 0.03691,-0.36907 0.03691,-0.77505 0,-0.40598 -0.110722,-0.73815 -0.110722,-0.36907 -0.369073,-0.59051 -0.25835,-0.22145 -0.701238,-0.25835 -1.365568,-0.0369 -2.804951,0.99649 -1.439383,0.9965 -2.768044,2.5466 -1.328662,1.55011 -2.435879,3.32166 -1.070311,1.77155 -1.697734,3.21093 -0.184536,0.40598 -0.369073,1.0334 -0.184536,0.59052 -0.258351,1.18103 -0.07381,0.40598 -0.07381,0.77506 0,0.36907 0.147629,0.62742 0.184536,0.25835 0.516702,0.33217 0.332165,0.0738 0.922681,-0.0738 0.553609,-0.14763 1.402476,-0.84887 0.848867,-0.70123 1.771548,-1.62392 0.959589,-0.95958 1.845363,-2.02989 0.922681,-1.07031 1.550105,-1.91918 0.553609,-1.10722 0.996496,-2.14062 0.479794,-1.07031 0.66433,-1.80846 z"
           style="stroke-width:0.92268139"
           id="path27" />
        <path
           d="m 104.90003,106.40283 q -2.21444,3.32165 -5.240832,5.53609 -2.989488,2.21443 -6.421863,3.28475 -0.110721,0.99649 0.110722,1.88227 0.258351,0.88577 1.107218,1.07031 l -0.07381,-0.0369 q 0.701238,0.18453 1.697734,-0.11072 1.033403,-0.29526 2.214436,-1.03341 1.217939,-0.77505 2.5466,-1.99299 1.32866,-1.21794 2.65732,-2.87876 0.70124,-0.88578 1.32866,-1.80846 0.66433,-0.95959 1.25485,-1.80846 0.40598,-0.47979 0.88578,-0.5167 0.5167,-0.0369 0.84886,0.25835 0.36907,0.25835 0.44289,0.77506 0.11072,0.47979 -0.33217,1.10721 l -0.92268,1.32867 q -1.18103,1.66082 -2.87876,3.69072 -1.66083,1.99299 -3.80145,3.87526 -1.254848,1.03341 -2.43588,1.62392 -1.181032,0.55361 -2.177528,0.81196 -0.996496,0.29526 -1.808456,0.33217 -0.775052,0.0738 -1.217939,0.0738 -2.878767,0 -4.170521,-1.66082 -1.254846,-1.66083 -0.885774,-4.5396 0.332166,-2.50969 1.587012,-4.90866 1.291754,-2.39897 3.616912,-5.20393 0.811959,-0.92268 2.029899,-1.95608 1.217939,-1.07031 2.657322,-1.95609 1.439383,-0.88577 2.989493,-1.43938 1.58701,-0.553607 3.02639,-0.5167 1.5132,0.03691 2.28825,1.0334 0.77505,0.95959 0.47979,2.62042 -0.11072,0.73814 -0.47979,1.5132 -0.33217,0.73814 -0.95959,1.58701 z m -1.91918,-3.02639 q -1.32866,0.25835 -2.62041,1.18103 -1.291758,0.92268 -2.435883,2.17753 -1.144125,1.25484 -2.103714,2.69423 -0.959588,1.40247 -1.587012,2.65732 2.620416,-1.07031 4.871758,-2.87877 2.251341,-1.84536 3.838351,-4.39196 v 0.0369 q 0.22145,-0.29526 0.29526,-0.59052 0.11072,-0.29526 0.18454,-0.5167 0.0738,-0.5167 -0.44289,-0.36907 z"
           style="stroke-width:0.92268139"
           id="path29" />
        <path
           d="m 115.86552,101.45726 q -0.44289,0.70124 -1.21794,1.91918 -0.77505,1.21794 -1.69774,2.73113 -0.88577,1.47629 -1.84536,3.13712 -0.95959,1.62392 -1.77155,3.17402 -0.81196,1.5132 -1.36557,2.80496 -0.5536,1.29175 -0.66433,2.0668 -0.0738,0.11072 -0.0738,0.18454 0,0.0738 -0.0369,0.11072 h 0.25835 q 1.07031,-0.36907 2.10372,-1.18103 1.0334,-0.84887 1.99299,-1.88227 0.95959,-1.07031 1.84536,-2.25135 0.88578,-1.21793 1.69774,-2.36206 h -0.0369 q 0.22144,-0.33217 0.47979,-0.62742 0.25835,-0.33217 0.4798,-0.62743 0.14763,-0.22144 0.5167,-0.11072 0.36907,0.11072 0.70124,0.36907 0.36907,0.25836 0.55361,0.62743 0.22144,0.33216 0.0738,0.59051 l -1.21794,1.66083 q -1.5132,2.10371 -3.28475,4.28124 -1.73464,2.14062 -3.69072,3.76454 -0.33217,0.29526 -0.84887,0.66433 -0.5167,0.33217 -1.14412,0.62743 -0.62743,0.29525 -1.32866,0.47979 -0.70124,0.22144 -1.40248,0.22144 -0.81196,-0.0369 -1.32866,-0.40598 -0.5167,-0.36907 -0.81196,-0.95958 -0.25835,-0.62743 -0.29526,-1.40248 -0.0738,-0.81196 0.0738,-1.77155 0.0738,-0.40598 0.18453,-0.84887 0.11072,-0.47979 0.25835,-0.84886 1.10722,-3.69073 3.0633,-7.16001 1.993,-3.50619 4.09671,-6.90166 l 1.99299,-3.100207 q 0.84887,-1.402475 1.66083,-2.841858 0.84887,-1.476291 1.58701,-2.878767 0.77505,-1.402475 1.40248,-2.694229 0.66433,-1.328662 1.10721,-2.435879 0.59052,-0.295258 1.36557,0.03691 0.81196,0.295258 1.43939,0.959589 0.66433,0.66433 0.99649,1.550104 0.33217,0.848867 0,1.660827 -0.25835,0.553609 -0.88577,1.587012 -0.59052,1.033403 -1.40248,2.325157 -0.77505,1.291754 -1.66082,2.69423 -0.84887,1.365569 -1.62392,2.583504 z"
           style="stroke-width:0.92268139"
           id="path31" />
      </g>
      <g
         transform="translate(11.641668,-1.0583333)"
         id="text36"
         style="font-style:normal;font-variant:normal;font-weight:normal;font-stretch:normal;font-size:51.54393768px;line-height:1.25;font-family:'Vegan Style Personal Use';-inkscape-font-specification:'Vegan Style Personal Use';letter-spacing:0px;word-spacing:0px;fill:#000000;fill-opacity:1;stroke:none;stroke-width:1.2885983"
         aria-label="L">
        <path
           sodipodi:nodetypes="scsccccscsccsccccccccscsscsssccccsscscccccssccsscssscscccccccccccscccsccscscccscscccscscscccsccsssccsccccc"
           inkscape:connector-curvature="0"
           id="path38"
           style="font-style:normal;font-variant:normal;font-weight:normal;font-stretch:normal;font-size:51.54393768px;font-family:Meddon;-inkscape-font-specification:'Meddon, Normal';font-variant-ligatures:normal;font-variant-caps:normal;font-variant-numeric:normal;font-feature-settings:normal;text-align:start;writing-mode:lr-tb;text-anchor:start;stroke-width:1.38414943"
           d="m 41.240746,41.97154 c 1.013927,-0.151724 1.974668,-0.298217 2.919473,-0.528118 -0.01497,-2.048051 0.193699,-4.019387 0.625869,-5.914009 0.432173,-1.894621 1.011431,-3.67266 1.73776,-5.33411 0.74469,-1.666776 1.602811,-3.198367 2.574373,-4.594762 0.989909,-1.401725 2.022893,-2.639011 3.098946,-3.711855 1.088269,-1.094082 2.189029,-1.997162 3.302288,-2.709245 1.131608,-0.717405 2.220647,-1.227841 3.267096,-1.531305 1.340188,-0.388647 2.530892,-0.397779 3.572102,-0.02739 1.05957,0.365063 1.835066,1.184056 2.326488,2.45698 0.288722,0.74784 0.363315,1.655085 0.223991,2.72169 -0.121047,1.061292 -0.440935,2.215638 -0.959662,3.463026 -0.524873,1.231482 -1.239439,2.526815 -2.143703,3.886011 -0.904267,1.359189 -1.992186,2.718563 -3.263764,4.07812 -1.259362,1.338319 -2.702415,2.650281 -4.329163,3.935908 -1.614528,1.264387 -3.391422,2.425468 -5.330685,3.483241 -0.07673,2.180791 -0.165636,4.409344 -0.266731,6.685663 -0.107222,2.260401 -0.26954,4.536781 -0.486928,6.82913 -0.223526,2.276439 -0.545029,4.537057 -0.964495,6.781855 -0.401119,2.239468 -0.964528,4.428694 -1.690234,6.567677 2.119211,0.783185 4.210846,1.547824 6.27491,2.29392 2.088562,0.756684 4.152455,1.370134 6.191669,1.840351 2.039212,0.470213 4.059795,0.733522 6.061734,0.789914 2.008086,0.07231 4.003499,-0.17904 5.986247,-0.754017 2.166333,-0.628235 4.319834,-1.712743 6.460485,-3.25355 2.140651,-1.54081 4.277435,-3.699746 6.41035,-6.476823 1.516034,-1.67814 2.815253,-2.966096 3.897656,-3.863852 1.082406,-0.897756 1.917346,-1.431817 2.504824,-1.602184 0.458945,-0.133165 0.746804,-0.0486 0.863524,0.253833 0.165964,0.429583 -0.09012,1.300028 -0.767939,2.611243 -0.653315,1.321807 -1.82029,3.084499 -3.500931,5.288091 -1.124434,1.529199 -2.246032,2.880647 -3.364809,4.054343 -1.100414,1.168374 -2.219393,2.182899 -3.356937,3.043568 -1.1192,0.855348 -2.241635,1.570094 -3.367311,2.144236 -1.125683,0.574135 -2.248463,1.023589 -3.368352,1.348348 -2.221414,0.644194 -4.467847,0.879864 -6.739305,0.707 -2.265315,-0.156948 -4.552372,-0.55529 -6.861177,-1.195028 -2.308797,-0.639742 -4.654527,-1.428008 -7.037181,-2.364803 -2.364291,-0.942116 -4.765304,-1.873587 -7.203033,-2.794408 -0.732542,1.592483 -1.590701,3.09754 -2.574475,4.515175 -0.977631,1.433546 -2.114584,2.745216 -3.410877,3.935008 -1.271783,1.200376 -2.721299,2.257673 -4.348524,3.171884 -1.602738,0.924794 -3.404651,1.677352 -5.405757,2.257663 -2.313205,0.670817 -4.434074,0.967341 -6.362574,0.889678 -1.928504,-0.0777 -3.633915,-0.423543 -5.116217,-1.03757 -1.463953,-0.619353 -2.704733,-1.453803 -3.722348,-2.503365 -0.993112,-1.038974 -1.729231,-2.17901 -2.208369,-3.420115 -0.472989,-1.225191 -0.679734,-2.501054 -0.620275,-3.827573 0.05949,-1.326525 0.409839,-2.587019 1.051076,-3.781469 0.635094,-1.210362 1.579494,-2.306951 2.833197,-3.289772 1.253708,-0.982821 2.835218,-1.751073 4.744532,-2.304762 1.872595,-0.543041 3.717917,-0.865906 5.536017,-0.968428 1.818074,-0.102595 3.624104,-0.05132 5.418097,0.153847 1.787849,0.189251 3.554438,0.508515 5.29977,0.957797 1.74534,0.449282 3.472385,0.956947 5.18114,1.522995 0.456676,-1.884033 0.842884,-3.818405 1.158625,-5.803112 0.327956,-2.005941 0.60998,-4.025103 0.846071,-6.057483 0.254453,-2.037705 0.478294,-4.075374 0.671522,-6.113022 0.211597,-2.042972 0.426293,-4.051452 0.644091,-6.025451 -0.385504,0.11188 -0.820047,0.228926 -1.303509,0.351458 -0.489642,0.106493 -0.997579,0.218554 -1.523903,0.335801 -0.526343,0.11723 -1.055761,0.226463 -1.58822,0.327856 -0.520249,0.08013 -1.016046,0.144235 -1.48737,0.192475 -2.532234,0.352061 -5.308257,1.150169 -7.639265,0.676068 -0.747129,-0.190273 -1.424128,-0.595507 -2.031009,-1.215697 -0.263584,-0.259731 -0.450661,-0.532796 -0.56123,-0.819209 -0.08576,-0.222823 -0.116824,-0.461515 -0.09277,-0.716199 0.02415,-0.254706 0.103415,-0.498852 0.237791,-0.732443 0.146591,-0.254826 0.336079,-0.477863 0.56846,-0.669098 0.25074,-0.196564 0.550521,-0.345424 0.899334,-0.446579 0.569148,-0.164978 1.233319,-0.189592 1.992594,-0.07359 0,0 5.371527,2.421643 9.616971,1.908604 z m -13.44543,40.762318 c 1.762445,-0.511094 3.310376,-1.207688 4.643801,-2.089779 1.333417,-0.882081 2.498296,-1.909919 3.494629,-3.083496 0.996341,-1.173578 1.839453,-2.47965 2.529342,-3.918218 0.696033,-1.42266 1.284814,-2.938066 1.766345,-4.546217 -1.622968,-0.502461 -3.270332,-0.935924 -4.942091,-1.300384 -1.653399,-0.369783 -3.334203,-0.625459 -5.042402,-0.767042 -1.708202,-0.141575 -3.440694,-0.134567 -5.197479,0.02104 -1.744575,0.134386 -3.525625,0.465058 -5.343152,0.992097 -1.083184,0.31407 -1.961041,0.789851 -2.633616,1.42722 -0.654218,0.632044 -1.130784,1.354108 -1.429691,2.166198 -0.298913,0.812094 -0.432454,1.682392 -0.400625,2.610885 0.0502,0.923173 0.25036,1.838237 0.60047,2.745197 0.386961,1.002439 0.945325,1.946328 1.674993,2.831688 0.754167,0.895953 1.639747,1.629941 2.656737,2.201975 1.016988,0.572033 2.168384,0.937006 3.454193,1.094917 1.291955,0.173825 2.68146,0.04511 4.168517,-0.38616 z M 48.740134,39.664066 c 1.57809,-1.041502 3.015246,-2.183681 4.311465,-3.426531 1.308432,-1.264083 2.466856,-2.54659 3.475271,-3.84752 1.026766,-1.306259 1.90356,-2.604403 2.630382,-3.894449 0.726821,-1.290039 1.30069,-2.500344 1.721625,-3.630906 0.439286,-1.13589 0.713453,-2.144273 0.822492,-3.025158 0.121255,-0.902118 0.0836,-1.607761 -0.112992,-2.116928 -0.276452,-0.716015 -0.836893,-0.951581 -1.681398,-0.706679 -0.605863,0.175629 -1.312373,0.592894 -2.119601,1.251617 -0.807232,0.658723 -1.635655,1.500521 -2.485252,2.525388 -0.831247,1.019547 -1.656176,2.187649 -2.474791,3.504308 -0.806394,1.295425 -1.517785,2.678309 -2.134172,4.148638 -0.61639,1.470338 -1.110266,2.993606 -1.481644,4.569813 -0.359154,1.554976 -0.516293,3.104444 -0.471417,4.648408 z" />
      </g>
    </g>
    <text
       xml:space="preserve"
       style="font-style:normal;font-variant:normal;font-weight:normal;font-stretch:normal;font-size:10.58333302px;line-height:1.25;font-family:'Vegan Style Personal Use';-inkscape-font-specification:'Vegan Style Personal Use';letter-spacing:0px;word-spacing:0px;fill:#000000;fill-opacity:1;stroke:none;stroke-width:0.26458332"
       x="126.20625"
       y="145.12917"
       id="text3749"><tspan
         sodipodi:role="line"
         id="tspan3747"
         x="126.20625"
         y="154.38959"
         style="stroke-width:0.26458332" /></text>
  </g>
</svg>
